<svg width="326" height="97" viewBox="0 0 326 97" fill="none" xmlns="http://www.w3.org/2000/svg">
<path d="M152.301 60.292L133.862 20.5177C133.508 19.7494 133.98 18.9811 134.867 18.9811H142.727C143.2 18.9811 143.614 19.3357 143.732 19.6312L153.483 41.2027H153.838L163.59 19.6312C163.708 19.3357 164.121 18.9811 164.594 18.9811H172.455C173.341 18.9811 173.814 19.7494 173.459 20.5177L154.902 60.292C154.725 60.6466 154.37 60.9421 153.897 60.9421H153.306C152.833 60.9421 152.479 60.6466 152.301 60.292ZM202.838 60.3511H178.548V18.1537H202.838V25.4821H187.472V34.7608H201.775V42.0892H187.472V52.9636H202.838V60.3511ZM196.16 5.15167C196.712 6.01847 197.421 7.00347 198.288 8.10667C199.194 9.17047 200.12 10.2146 201.065 11.239C202.011 12.2634 202.838 13.1302 203.548 13.8394V14.6077H197.697C196.672 13.9773 195.549 13.2484 194.328 12.421C193.107 11.5542 191.984 10.5889 190.959 9.52507C189.935 10.5889 188.832 11.5345 187.65 12.3619C186.468 13.1893 185.364 13.9379 184.34 14.6077H178.489V13.8394C179.238 13.0908 180.065 12.224 180.971 11.239C181.917 10.2146 182.823 9.17047 183.69 8.10667C184.596 7.00347 185.325 6.01847 185.877 5.15167H196.16ZM211.383 59.2282L211.323 19.4539C211.323 18.8629 211.855 18.3901 212.446 18.3901H213.924L237.505 41.0845H237.564V20.104C237.564 19.513 238.037 18.9811 238.687 18.9811H245.779C246.37 18.9811 246.902 19.513 246.902 20.104V59.8783C246.902 60.4693 246.37 60.9421 245.779 60.9421H244.833C244.656 60.9421 244.183 60.7648 244.065 60.6466L220.72 37.1839H220.661V59.2282C220.661 59.8192 220.188 60.3511 219.538 60.3511H212.505C211.914 60.3511 211.383 59.8192 211.383 59.2282ZM256.329 44.5123V20.104C256.329 19.513 256.86 18.9811 257.451 18.9811H264.721C265.371 18.9811 265.844 19.513 265.844 20.104V44.0395C265.844 48.1765 268.917 51.4861 273.113 51.4861C277.368 51.4861 280.5 48.1765 280.5 44.0395V20.104C280.5 19.513 280.973 18.9811 281.623 18.9811H288.893C289.484 18.9811 290.016 19.513 290.016 20.104V44.5123C290.016 53.4955 282.451 60.9421 273.113 60.9421C263.834 60.9421 256.329 53.4955 256.329 44.5123ZM297.445 56.3914C296.854 55.8004 296.676 55.564 297.149 54.7366L299.927 49.8313C300.4 49.063 301.522 49.1812 301.936 49.4767C302.173 49.5949 306.428 52.7272 310.328 52.7272C312.692 52.7272 314.406 51.2497 314.406 49.1812C314.406 46.699 312.338 44.8078 308.319 43.2121C303.236 41.2027 296.854 37.243 296.854 30.151C296.854 24.3001 301.404 18.3901 310.506 18.3901C316.652 18.3901 321.38 21.5224 323.153 22.8226C323.862 23.2363 323.744 24.3001 323.508 24.7138L320.494 29.2645C320.08 29.9146 319.016 30.4465 318.484 30.0328C317.952 29.7373 313.638 26.4868 310.033 26.4868C307.905 26.4868 306.31 27.9052 306.31 29.5009C306.31 31.6876 308.083 33.3424 312.751 35.2336C317.361 37.0657 324.69 40.6708 324.69 48.7084C324.69 54.7957 319.43 60.9421 310.742 60.9421C303.059 60.9421 298.804 57.7507 297.445 56.3914Z" fill="#1C1C1C"/>
<path d="M136.61 88.5264V70.2552C136.61 69.9792 136.831 69.7308 137.135 69.7308H148.368C148.671 69.7308 148.892 69.9792 148.892 70.2552V72.5184C148.892 72.7944 148.671 73.0428 148.368 73.0428H140.198V77.5692H147.015C147.291 77.5692 147.54 77.8176 147.54 78.0936V80.3844C147.54 80.688 147.291 80.9088 147.015 80.9088H140.198V85.7388H148.368C148.671 85.7388 148.892 85.9872 148.892 86.2632V88.5264C148.892 88.8024 148.671 89.0508 148.368 89.0508H137.135C136.831 89.0508 136.61 88.8024 136.61 88.5264ZM154.768 88.5264V70.2552C154.768 69.9792 154.989 69.7308 155.292 69.7308H157.832C158.108 69.7308 158.356 69.9792 158.356 70.2552V85.7388H165.394C165.698 85.7388 165.918 85.9872 165.918 86.2632V88.5264C165.918 88.8024 165.698 89.0508 165.394 89.0508H155.292C154.989 89.0508 154.768 88.8024 154.768 88.5264ZM170.635 88.5264V70.2552C170.635 69.9792 170.856 69.7308 171.159 69.7308H182.392C182.696 69.7308 182.917 69.9792 182.917 70.2552V72.5184C182.917 72.7944 182.696 73.0428 182.392 73.0428H174.223V77.5692H181.04C181.316 77.5692 181.564 77.8176 181.564 78.0936V80.3844C181.564 80.688 181.316 80.9088 181.04 80.9088H174.223V85.7388H182.392C182.696 85.7388 182.917 85.9872 182.917 86.2632V88.5264C182.917 88.8024 182.696 89.0508 182.392 89.0508H171.159C170.856 89.0508 170.635 88.8024 170.635 88.5264ZM227.884 88.5264V70.2552C227.884 69.9792 228.105 69.7308 228.381 69.7308H234.922C240.249 69.7308 244.61 74.064 244.61 79.3632C244.61 84.7176 240.249 89.0508 234.922 89.0508H228.381C228.105 89.0508 227.884 88.8024 227.884 88.5264ZM231.445 85.6836H234.591C238.179 85.6836 240.801 82.9788 240.801 79.3632C240.801 75.7752 238.179 73.0704 234.591 73.0704H231.445V85.6836ZM248.813 79.4184C248.813 73.8984 253.201 69.4548 258.721 69.4548C264.241 69.4548 268.657 73.8984 268.657 79.4184C268.657 84.9384 264.241 89.3268 258.721 89.3268C253.201 89.3268 248.813 84.9384 248.813 79.4184ZM252.401 79.4184C252.401 82.896 255.244 85.7388 258.721 85.7388C262.199 85.7388 265.069 82.896 265.069 79.4184C265.069 75.9408 262.199 73.0428 258.721 73.0428C255.244 73.0428 252.401 75.9408 252.401 79.4184ZM274.199 88.5264V70.2552C274.199 69.9792 274.42 69.7308 274.724 69.7308H282.617C285.929 69.7308 288.634 72.3804 288.634 75.6648C288.634 78.204 286.951 80.274 284.549 81.24L288.331 88.2504C288.524 88.6092 288.331 89.0508 287.861 89.0508H284.963C284.715 89.0508 284.577 88.9128 284.522 88.8024L280.851 81.4884H277.787V88.5264C277.787 88.8024 277.539 89.0508 277.263 89.0508H274.724C274.42 89.0508 274.199 88.8024 274.199 88.5264ZM277.815 78.5352H282.314C283.777 78.5352 285.046 77.2656 285.046 75.72C285.046 74.2572 283.777 73.0428 282.314 73.0428H277.815V78.5352ZM294.514 88.5264V70.2552C294.514 69.9792 294.734 69.7308 295.038 69.7308H306.271C306.575 69.7308 306.796 69.9792 306.796 70.2552V72.5184C306.796 72.7944 306.575 73.0428 306.271 73.0428H298.102V77.5692H304.919C305.195 77.5692 305.443 77.8176 305.443 78.0936V80.3844C305.443 80.688 305.195 80.9088 304.919 80.9088H298.102V85.7388H306.271C306.575 85.7388 306.796 85.9872 306.796 86.2632V88.5264C306.796 88.8024 306.575 89.0508 306.271 89.0508H295.038C294.734 89.0508 294.514 88.8024 294.514 88.5264ZM311.678 87.174C311.429 86.9256 311.291 86.7876 311.54 86.346L312.533 84.6348C312.754 84.2484 313.223 84.2484 313.472 84.4416C313.61 84.5244 315.845 86.1528 317.639 86.1528C319.074 86.1528 320.151 85.2144 320.151 84.0276C320.151 82.62 318.964 81.654 316.646 80.7156C314.051 79.6668 311.457 78.0108 311.457 74.754C311.457 72.2976 313.278 69.4548 317.667 69.4548C320.482 69.4548 322.635 70.89 323.187 71.304C323.463 71.4696 323.546 71.9388 323.352 72.2148L322.304 73.788C322.083 74.1192 321.669 74.34 321.338 74.1192C321.117 73.9812 319.019 72.6012 317.501 72.6012C315.928 72.6012 315.072 73.65 315.072 74.5332C315.072 75.8304 316.094 76.7136 318.329 77.6244C321.006 78.7008 324.098 80.3016 324.098 83.862C324.098 86.7048 321.641 89.3268 317.75 89.3268C314.272 89.3268 312.23 87.6984 311.678 87.174Z" fill="#1C1C1C"/>
<path d="M194.809 89.0232L186.281 70.4484C186.115 70.0896 186.336 69.7308 186.75 69.7308H189.565C189.814 69.7308 189.979 69.8964 190.035 70.0344L195.334 81.9024H195.527L200.826 70.0344C200.881 69.8964 201.047 69.7308 201.295 69.7308H204.111C204.525 69.7308 204.745 70.0896 204.58 70.4484L196.024 89.0232C195.941 89.1888 195.803 89.3268 195.555 89.3268H195.279C195.03 89.3268 194.892 89.1888 194.809 89.0232Z" fill="#750606"/>
<path d="M74.6775 27.2017H97.0215L64.608 82.8412C61.5945 86.4427 57.9048 90.3088 51.378 91.0732C41.4408 92.6608 34.5955 86.2467 32.415 82.8412C32.415 82.8412 39.177 87.0307 43.2195 81.0037L74.6775 27.2017Z" fill="url(#paint0_linear_54264_861)"/>
<path d="M37.118 61.5996L21.0215 50.2806L42.7775 13.6319C45.791 10.0304 49.4807 6.16429 56.0075 5.39989C65.9447 3.81229 72.79 10.2264 74.9705 13.6319C74.9705 13.6319 68.2085 9.44239 64.166 15.4694L37.118 61.5996Z" fill="url(#paint1_linear_54264_861)"/>
<path d="M85.115 69.271H107.459L75.0455 13.6315C72.032 10.03 68.3423 6.16389 61.8155 5.3995C51.8783 3.8119 45.033 10.226 42.8525 13.6315C42.8525 13.6315 49.6145 9.442 53.657 15.469L85.115 69.271Z" fill="url(#paint2_linear_54264_861)"/>
<path d="M22.346 27.4219H0.00195312L32.4155 83.0614C35.429 86.6629 39.1187 90.529 45.6455 91.2934C55.5827 92.881 62.428 86.4669 64.6085 83.0614C64.6085 83.0614 57.8465 87.2509 53.804 81.2239L22.346 27.4219Z" fill="url(#paint3_linear_54264_861)"/>
<path d="M214.07 70.0784L222.599 88.6532C222.764 89.012 222.543 89.3708 222.129 89.3708L219.314 89.3708C219.066 89.3708 218.9 89.2052 218.845 89.0672L213.546 77.1992L213.353 77.1992L208.053 89.0672C207.998 89.2052 207.833 89.3708 207.584 89.3708L204.769 89.3708C204.355 89.3708 204.134 89.012 204.3 88.6532L212.856 70.0784C212.939 69.9128 213.077 69.7748 213.325 69.7748L213.601 69.7748C213.849 69.7748 213.987 69.9128 214.07 70.0784Z" fill="#750606"/>
<defs>
<linearGradient id="paint0_linear_54264_861" x1="64.7182" y1="27.2017" x2="64.7182" y2="91.3214" gradientUnits="userSpaceOnUse">
<stop stop-color="#C85353"/>
<stop offset="1" stop-color="#AC0A0A"/>
</linearGradient>
<linearGradient id="paint1_linear_54264_861" x1="42.6672" y1="69.2714" x2="42.6672" y2="5.15161" gradientUnits="userSpaceOnUse">
<stop stop-color="#C85353"/>
<stop offset="1" stop-color="#AC0A0A"/>
</linearGradient>
<linearGradient id="paint2_linear_54264_861" x1="75.1557" y1="69.271" x2="75.1557" y2="5.15122" gradientUnits="userSpaceOnUse">
<stop stop-color="#BB0606"/>
<stop offset="1" stop-color="#680707"/>
</linearGradient>
<linearGradient id="paint3_linear_54264_861" x1="32.3052" y1="27.4219" x2="32.3052" y2="91.5416" gradientUnits="userSpaceOnUse">
<stop stop-color="#BB0606"/>
<stop offset="1" stop-color="#680707"/>
</linearGradient>
</defs>
</svg>
