<svg width="1084" height="289" viewBox="0 0 1084 289" fill="none" xmlns="http://www.w3.org/2000/svg">
<path d="M508.571 184.769L447.107 52.1875C445.925 49.6265 447.501 47.0655 450.456 47.0655H476.657C478.233 47.0655 479.612 48.2475 480.006 49.2325L512.511 121.138H513.693L546.198 49.2325C546.592 48.2475 547.971 47.0655 549.547 47.0655H575.748C578.703 47.0655 580.279 49.6265 579.097 52.1875L517.239 184.769C516.648 185.951 515.466 186.936 513.89 186.936H511.92C510.344 186.936 509.162 185.951 508.571 184.769Z" fill="#1C1C1C"/>
<path d="M677.028 184.966H596.061V44.3075H677.028V68.7355H625.808V99.6645H673.482V124.093H625.808V160.341H677.028V184.966ZM654.767 0.967529C656.606 3.85686 658.97 7.14019 661.859 10.8175C664.88 14.3635 667.966 17.8439 671.118 21.2585C674.27 24.6732 677.028 27.5625 679.392 29.9265V32.4875H659.889C656.474 30.3862 652.731 27.9565 648.66 25.1985C644.589 22.3092 640.846 19.0915 637.431 15.5455C634.016 19.0915 630.339 22.2435 626.399 25.0015C622.459 27.7595 618.782 30.2549 615.367 32.4875H595.864V29.9265C598.359 27.4312 601.117 24.5419 604.138 21.2585C607.29 17.8439 610.311 14.3635 613.2 10.8175C616.221 7.14019 618.65 3.85686 620.489 0.967529H654.767Z" fill="#1C1C1C"/>
<path d="M705.508 181.223L705.311 48.6415C705.311 46.6715 707.084 45.0955 709.054 45.0955H713.979L792.582 120.744H792.779V50.8085C792.779 48.8385 794.355 47.0655 796.522 47.0655H820.162C822.132 47.0655 823.905 48.8385 823.905 50.8085V183.39C823.905 185.36 822.132 186.936 820.162 186.936H817.01C816.419 186.936 814.843 186.345 814.449 185.951L736.634 107.742H736.437V181.223C736.437 183.193 734.861 184.966 732.694 184.966H709.251C707.281 184.966 705.508 183.193 705.508 181.223Z" fill="#1C1C1C"/>
<path d="M855.328 132.17V50.8085C855.328 48.8385 857.101 47.0655 859.071 47.0655H883.302C885.469 47.0655 887.045 48.8385 887.045 50.8085V130.594C887.045 144.384 897.289 155.416 911.276 155.416C925.46 155.416 935.901 144.384 935.901 130.594V50.8085C935.901 48.8385 937.477 47.0655 939.644 47.0655H963.875C965.845 47.0655 967.618 48.8385 967.618 50.8085V132.17C967.618 162.114 942.402 186.936 911.276 186.936C880.347 186.936 855.328 162.114 855.328 132.17Z" fill="#1C1C1C"/>
<path d="M992.382 171.767C990.412 169.797 989.821 169.009 991.397 166.251L1000.66 149.9C1002.23 147.339 1005.97 147.733 1007.35 148.718C1008.14 149.112 1022.33 159.553 1035.33 159.553C1043.21 159.553 1048.92 154.628 1048.92 147.733C1048.92 139.459 1042.03 133.155 1028.63 127.836C1011.69 121.138 990.412 107.939 990.412 84.2985C990.412 64.7955 1005.58 45.0955 1035.92 45.0955C1056.41 45.0955 1072.17 55.5365 1078.08 59.8705C1080.44 61.2495 1080.05 64.7955 1079.26 66.1745L1069.21 81.3435C1067.83 83.5105 1064.29 85.2835 1062.51 83.9045C1060.74 82.9195 1046.36 72.0845 1034.34 72.0845C1027.25 72.0845 1021.93 76.8125 1021.93 82.1315C1021.93 89.4205 1027.84 94.9365 1043.4 101.241C1058.77 107.348 1083.2 119.365 1083.2 146.157C1083.2 166.448 1065.67 186.936 1036.71 186.936C1011.1 186.936 996.913 176.298 992.382 171.767Z" fill="#1C1C1C"/>
<path d="M456.267 279.218V218.314C456.267 217.394 457.003 216.566 458.015 216.566H495.459C496.471 216.566 497.207 217.394 497.207 218.314V225.858C497.207 226.778 496.471 227.606 495.459 227.606H468.227V242.694H490.951C491.871 242.694 492.699 243.522 492.699 244.442V252.078C492.699 253.09 491.871 253.826 490.951 253.826H468.227V269.926H495.459C496.471 269.926 497.207 270.754 497.207 271.674V279.218C497.207 280.138 496.471 280.966 495.459 280.966H458.015C457.003 280.966 456.267 280.138 456.267 279.218Z" fill="#1C1C1C"/>
<path d="M516.793 279.218V218.314C516.793 217.394 517.529 216.566 518.541 216.566H527.005C527.925 216.566 528.753 217.394 528.753 218.314V269.926H552.213C553.225 269.926 553.961 270.754 553.961 271.674V279.218C553.961 280.138 553.225 280.966 552.213 280.966H518.541C517.529 280.966 516.793 280.138 516.793 279.218Z" fill="#1C1C1C"/>
<path d="M569.683 279.218V218.314C569.683 217.394 570.419 216.566 571.431 216.566H608.875C609.887 216.566 610.623 217.394 610.623 218.314V225.858C610.623 226.778 609.887 227.606 608.875 227.606H581.643V242.694H604.367C605.286 242.694 606.115 243.522 606.115 244.442V252.078C606.115 253.09 605.286 253.826 604.367 253.826H581.643V269.926H608.875C609.887 269.926 610.623 270.754 610.623 271.674V279.218C610.623 280.138 609.887 280.966 608.875 280.966H571.431C570.419 280.966 569.683 280.138 569.683 279.218Z" fill="#1C1C1C"/>
<path d="M650.264 280.874L621.836 218.958C621.284 217.762 622.021 216.566 623.401 216.566H632.784C633.612 216.566 634.164 217.118 634.349 217.578L652.013 257.138H652.656L670.32 217.578C670.505 217.118 671.057 216.566 671.885 216.566H681.268C682.648 216.566 683.385 217.762 682.833 218.958L654.312 280.874C654.036 281.426 653.576 281.886 652.748 281.886H651.828C651 281.886 650.54 281.426 650.264 280.874Z" fill="#750606"/>
<path d="M760.514 279.218V218.314C760.514 217.394 761.25 216.566 762.17 216.566H783.974C801.73 216.566 816.266 231.01 816.266 248.674C816.266 266.522 801.73 280.966 783.974 280.966H762.17C761.25 280.966 760.514 280.138 760.514 279.218ZM772.382 269.742H782.87C794.83 269.742 803.57 260.726 803.57 248.674C803.57 236.714 794.83 227.698 782.87 227.698H772.382V269.742Z" fill="#1C1C1C"/>
<path d="M830.276 248.858C830.276 230.458 844.904 215.646 863.304 215.646C881.704 215.646 896.424 230.458 896.424 248.858C896.424 267.258 881.704 281.886 863.304 281.886C844.904 281.886 830.276 267.258 830.276 248.858ZM842.236 248.858C842.236 260.45 851.712 269.926 863.304 269.926C874.896 269.926 884.464 260.45 884.464 248.858C884.464 237.266 874.896 227.606 863.304 227.606C851.712 227.606 842.236 237.266 842.236 248.858Z" fill="#1C1C1C"/>
<path d="M914.898 279.218V218.314C914.898 217.394 915.634 216.566 916.646 216.566H942.958C953.998 216.566 963.014 225.398 963.014 236.346C963.014 244.81 957.402 251.71 949.398 254.93L962.002 278.298C962.646 279.494 962.002 280.966 960.438 280.966H950.778C949.95 280.966 949.49 280.506 949.306 280.138L937.07 255.758H926.858V279.218C926.858 280.138 926.03 280.966 925.11 280.966H916.646C915.634 280.966 914.898 280.138 914.898 279.218ZM926.95 245.914H941.946C946.822 245.914 951.054 241.682 951.054 236.53C951.054 231.654 946.822 227.606 941.946 227.606H926.95V245.914Z" fill="#1C1C1C"/>
<path d="M982.612 279.218V218.314C982.612 217.394 983.348 216.566 984.36 216.566H1021.8C1022.82 216.566 1023.55 217.394 1023.55 218.314V225.858C1023.55 226.778 1022.82 227.606 1021.8 227.606H994.572V242.694H1017.3C1018.22 242.694 1019.04 243.522 1019.04 244.442V252.078C1019.04 253.09 1018.22 253.826 1017.3 253.826H994.572V269.926H1021.8C1022.82 269.926 1023.55 270.754 1023.55 271.674V279.218C1023.55 280.138 1022.82 280.966 1021.8 280.966H984.36C983.348 280.966 982.612 280.138 982.612 279.218Z" fill="#1C1C1C"/>
<path d="M1039.83 274.71C1039 273.882 1038.54 273.422 1039.37 271.95L1042.68 266.246C1043.41 264.958 1044.98 264.958 1045.81 265.602C1046.27 265.878 1053.72 271.306 1059.7 271.306C1064.48 271.306 1068.07 268.178 1068.07 264.222C1068.07 259.53 1064.11 256.31 1056.39 253.182C1047.74 249.686 1039.09 244.166 1039.09 233.31C1039.09 225.122 1045.16 215.646 1059.79 215.646C1069.17 215.646 1076.35 220.43 1078.19 221.81C1079.11 222.362 1079.39 223.926 1078.74 224.846L1075.25 230.09C1074.51 231.194 1073.13 231.93 1072.03 231.194C1071.29 230.734 1064.3 226.134 1059.24 226.134C1053.99 226.134 1051.14 229.63 1051.14 232.574C1051.14 236.898 1054.55 239.842 1062 242.878C1070.92 246.466 1081.23 251.802 1081.23 263.67C1081.23 273.146 1073.04 281.886 1060.07 281.886C1048.47 281.886 1041.67 276.458 1039.83 274.71Z" fill="#1C1C1C"/>
<path d="M249.721 74.4981H324.201L216.156 259.963C206.111 271.968 193.812 284.855 172.056 287.403C138.932 292.695 116.114 271.315 108.846 259.963C108.846 259.963 131.386 273.928 144.861 253.838L249.721 74.4981Z" fill="url(#paint0_linear_54270_508)"/>
<path d="M124.526 189.158L70.8705 151.428L143.391 29.2657C153.436 17.2607 165.734 4.37369 187.491 1.82569C220.615 -3.46631 243.432 17.914 250.701 29.2657C250.701 29.2657 228.161 15.3007 214.686 35.3907L124.526 189.158Z" fill="url(#paint1_linear_54270_508)"/>
<path d="M284.51 214.731H358.99L250.945 29.2657C240.9 17.2607 228.601 4.37366 206.845 1.82565C173.721 -3.46634 150.904 17.914 143.635 29.2657C143.635 29.2657 166.175 15.3007 179.65 35.3907L284.51 214.731Z" fill="url(#paint2_linear_54270_508)"/>
<path d="M75.2808 75.2331H0.800781L108.846 260.698C118.891 272.703 131.19 285.59 152.946 288.138C186.07 293.43 208.887 272.05 216.156 260.698C216.156 260.698 193.616 274.663 180.141 254.573L75.2808 75.2331Z" fill="url(#paint3_linear_54270_508)"/>
<path d="M714.467 217.058L742.895 278.974C743.447 280.17 742.711 281.366 741.331 281.366H731.947C731.119 281.366 730.567 280.814 730.383 280.354L712.719 240.794H712.075L694.411 280.354C694.227 280.814 693.675 281.366 692.847 281.366H683.463C682.083 281.366 681.347 280.17 681.899 278.974L710.419 217.058C710.695 216.506 711.155 216.046 711.983 216.046H712.903C713.731 216.046 714.191 216.506 714.467 217.058Z" fill="#750606"/>
<defs>
<linearGradient id="paint0_linear_54270_508" x1="542" y1="0.967529" x2="542" y2="288.966" gradientUnits="userSpaceOnUse">
<stop stop-color="#918C8C"/>
<stop offset="1" stop-color="#5B5A5A"/>
</linearGradient>
<linearGradient id="paint1_linear_54270_508" x1="435.087" y1="-38.1739" x2="435.087" y2="288.966" gradientUnits="userSpaceOnUse">
<stop stop-color="#797979"/>
<stop offset="1" stop-color="#484848"/>
</linearGradient>
<linearGradient id="paint2_linear_54270_508" x1="542" y1="0.967529" x2="542" y2="288.966" gradientUnits="userSpaceOnUse">
<stop stop-color="#585858"/>
<stop offset="1" stop-color="#272727"/>
</linearGradient>
<linearGradient id="paint3_linear_54270_508" x1="542" y1="0.967529" x2="542" y2="288.966" gradientUnits="userSpaceOnUse">
<stop stop-color="#585858"/>
<stop offset="1" stop-color="#272727"/>
</linearGradient>
</defs>
</svg>
