<svg width="131" height="40" viewBox="0 0 131 40" fill="none" xmlns="http://www.w3.org/2000/svg">
<path d="M60.9203 24.9163L53.5446 9.00658C53.4028 8.69926 53.5919 8.39194 53.9465 8.39194H57.0906C57.2797 8.39194 57.4452 8.53378 57.4925 8.65198L61.3931 17.2806H61.5349L65.4355 8.65198C65.4828 8.53378 65.6483 8.39194 65.8374 8.39194H68.9815C69.3361 8.39194 69.5252 8.69926 69.3834 9.00658L61.9604 24.9163C61.8895 25.0581 61.7477 25.1763 61.5586 25.1763H61.3222C61.133 25.1763 60.9912 25.0581 60.9203 24.9163ZM81.1351 24.9399H71.419V8.06098H81.1351V10.9923H74.9887V14.7038H80.7095V17.6352H74.9887V21.9849H81.1351V24.9399ZM78.4637 2.86018C78.6844 3.2069 78.9681 3.6009 79.3148 4.04218C79.6773 4.4677 80.0476 4.88534 80.4259 5.2951C80.8041 5.70486 81.1351 6.05158 81.4187 6.33526V6.64258H79.0784C78.6686 6.39042 78.2195 6.09886 77.7309 5.7679C77.2423 5.42118 76.7932 5.03506 76.3834 4.60954C75.9737 5.03506 75.5324 5.4133 75.0596 5.74426C74.5868 6.07522 74.1455 6.37466 73.7357 6.64258H71.3954V6.33526C71.6948 6.03582 72.0258 5.6891 72.3883 5.2951C72.7665 4.88534 73.129 4.4677 73.4757 4.04218C73.8382 3.6009 74.1297 3.2069 74.3504 2.86018H78.4637ZM84.5527 24.4908L84.5291 8.58106C84.5291 8.34466 84.7418 8.15554 84.9782 8.15554H85.5692L95.0016 17.2333H95.0252V8.8411C95.0252 8.6047 95.2143 8.39194 95.4744 8.39194H98.3112C98.5476 8.39194 98.7604 8.6047 98.7604 8.8411V24.7508C98.7604 24.9872 98.5476 25.1763 98.3112 25.1763H97.9329C97.862 25.1763 97.6729 25.1054 97.6256 25.0581L88.2878 15.6731H88.2642V24.4908C88.2642 24.7272 88.0751 24.9399 87.815 24.9399H85.0019C84.7655 24.9399 84.5527 24.7272 84.5527 24.4908ZM102.531 18.6044V8.8411C102.531 8.6047 102.744 8.39194 102.98 8.39194H105.888C106.148 8.39194 106.337 8.6047 106.337 8.8411V18.4153C106.337 20.0701 107.566 21.3939 109.245 21.3939C110.947 21.3939 112.2 20.0701 112.2 18.4153V8.8411C112.2 8.6047 112.389 8.39194 112.649 8.39194H115.557C115.793 8.39194 116.006 8.6047 116.006 8.8411V18.6044C116.006 22.1977 112.98 25.1763 109.245 25.1763C105.533 25.1763 102.531 22.1977 102.531 18.6044ZM118.978 23.3561C118.741 23.1197 118.67 23.0251 118.859 22.6941L119.97 20.732C120.16 20.4247 120.609 20.472 120.774 20.5902C120.869 20.6375 122.571 21.8904 124.131 21.8904C125.077 21.8904 125.762 21.2994 125.762 20.472C125.762 19.4791 124.935 18.7226 123.327 18.0843C121.294 17.2806 118.741 15.6967 118.741 12.8599C118.741 10.5195 120.561 8.15554 124.202 8.15554C126.661 8.15554 128.552 9.40846 129.261 9.92854C129.545 10.094 129.497 10.5195 129.403 10.685L128.197 12.5053C128.032 12.7653 127.606 12.9781 127.393 12.8126C127.181 12.6944 125.455 11.3942 124.013 11.3942C123.162 11.3942 122.524 11.9616 122.524 12.5999C122.524 13.4745 123.233 14.1365 125.1 14.8929C126.944 15.6258 129.876 17.0678 129.876 20.2829C129.876 22.7178 127.772 25.1763 124.297 25.1763C121.223 25.1763 119.521 23.8998 118.978 23.3561Z" fill="#1C1C1C"/>
<path d="M54.6438 36.4104V29.1019C54.6438 28.9915 54.7321 28.8921 54.8536 28.8921H59.3468C59.4683 28.8921 59.5566 28.9915 59.5566 29.1019V30.0072C59.5566 30.1176 59.4683 30.2169 59.3468 30.2169H56.079V32.0275H58.8059C58.9163 32.0275 59.0156 32.1268 59.0156 32.2372V33.1536C59.0156 33.275 58.9163 33.3633 58.8059 33.3633H56.079V35.2953H59.3468C59.4683 35.2953 59.5566 35.3947 59.5566 35.5051V36.4104C59.5566 36.5208 59.4683 36.6201 59.3468 36.6201H54.8536C54.7321 36.6201 54.6438 36.5208 54.6438 36.4104ZM61.9069 36.4104V29.1019C61.9069 28.9915 61.9952 28.8921 62.1167 28.8921H63.1324C63.2428 28.8921 63.3421 28.9915 63.3421 29.1019V35.2953H66.1573C66.2788 35.2953 66.3671 35.3947 66.3671 35.5051V36.4104C66.3671 36.5208 66.2788 36.6201 66.1573 36.6201H62.1167C61.9952 36.6201 61.9069 36.5208 61.9069 36.4104ZM68.2536 36.4104V29.1019C68.2536 28.9915 68.3419 28.8921 68.4634 28.8921H72.9567C73.0781 28.8921 73.1664 28.9915 73.1664 29.1019V30.0072C73.1664 30.1176 73.0781 30.2169 72.9567 30.2169H69.6888V32.0275H72.4157C72.5261 32.0275 72.6255 32.1268 72.6255 32.2372V33.1536C72.6255 33.275 72.5261 33.3633 72.4157 33.3633H69.6888V35.2953H72.9567C73.0781 35.2953 73.1664 35.3947 73.1664 35.5051V36.4104C73.1664 36.5208 73.0781 36.6201 72.9567 36.6201H68.4634C68.3419 36.6201 68.2536 36.5208 68.2536 36.4104ZM91.1534 36.4104V29.1019C91.1534 28.9915 91.2417 28.8921 91.3521 28.8921H93.9686C96.0993 28.8921 97.8437 30.6254 97.8437 32.7451C97.8437 34.8868 96.0993 36.6201 93.9686 36.6201H91.3521C91.2417 36.6201 91.1534 36.5208 91.1534 36.4104ZM92.5776 35.2732H93.8361C95.2713 35.2732 96.3201 34.1913 96.3201 32.7451C96.3201 31.3099 95.2713 30.228 93.8361 30.228H92.5776V35.2732ZM99.5249 32.7672C99.5249 30.5592 101.28 28.7817 103.488 28.7817C105.696 28.7817 107.463 30.5592 107.463 32.7672C107.463 34.9752 105.696 36.7305 103.488 36.7305C101.28 36.7305 99.5249 34.9752 99.5249 32.7672ZM100.96 32.7672C100.96 34.1582 102.097 35.2953 103.488 35.2953C104.879 35.2953 106.027 34.1582 106.027 32.7672C106.027 31.3761 104.879 30.2169 103.488 30.2169C102.097 30.2169 100.96 31.3761 100.96 32.7672ZM109.679 36.4104V29.1019C109.679 28.9915 109.768 28.8921 109.889 28.8921H113.047C114.371 28.8921 115.453 29.952 115.453 31.2657C115.453 32.2814 114.78 33.1094 113.819 33.4958L115.332 36.3C115.409 36.4435 115.332 36.6201 115.144 36.6201H113.985C113.886 36.6201 113.831 36.5649 113.808 36.5208L112.34 33.5952H111.115V36.4104C111.115 36.5208 111.015 36.6201 110.905 36.6201H109.889C109.768 36.6201 109.679 36.5208 109.679 36.4104ZM111.126 32.4139H112.925C113.51 32.4139 114.018 31.906 114.018 31.2878C114.018 30.7027 113.51 30.2169 112.925 30.2169H111.126V32.4139ZM117.805 36.4104V29.1019C117.805 28.9915 117.893 28.8921 118.015 28.8921H122.508C122.63 28.8921 122.718 28.9915 122.718 29.1019V30.0072C122.718 30.1176 122.63 30.2169 122.508 30.2169H119.24V32.0275H121.967C122.078 32.0275 122.177 32.1268 122.177 32.2372V33.1536C122.177 33.275 122.078 33.3633 121.967 33.3633H119.24V35.2953H122.508C122.63 35.2953 122.718 35.3947 122.718 35.5051V36.4104C122.718 36.5208 122.63 36.6201 122.508 36.6201H118.015C117.893 36.6201 117.805 36.5208 117.805 36.4104ZM124.671 35.8694C124.571 35.77 124.516 35.7148 124.616 35.5382L125.013 34.8537C125.101 34.6992 125.289 34.6992 125.388 34.7764C125.444 34.8096 126.338 35.4609 127.055 35.4609C127.629 35.4609 128.06 35.0856 128.06 34.6108C128.06 34.0478 127.585 33.6614 126.658 33.286C125.62 32.8665 124.582 32.2041 124.582 30.9014C124.582 29.9188 125.311 28.7817 127.066 28.7817C128.193 28.7817 129.054 29.3558 129.274 29.5214C129.385 29.5876 129.418 29.7753 129.341 29.8857L128.921 30.515C128.833 30.6475 128.667 30.7358 128.535 30.6475C128.446 30.5923 127.607 30.0403 127 30.0403C126.371 30.0403 126.029 30.4598 126.029 30.8131C126.029 31.332 126.437 31.6852 127.331 32.0496C128.402 32.4801 129.639 33.1204 129.639 34.5446C129.639 35.6817 128.656 36.7305 127.1 36.7305C125.709 36.7305 124.892 36.0792 124.671 35.8694Z" fill="#1C1C1C"/>
<path d="M77.9235 36.6091L74.5121 29.1792C74.4459 29.0356 74.5342 28.8921 74.6998 28.8921H75.8259C75.9252 28.8921 75.9915 28.9584 76.0135 29.0136L78.1332 33.7608H78.2105L80.3302 29.0136C80.3523 28.9584 80.4185 28.8921 80.5179 28.8921H81.6439C81.8095 28.8921 81.8979 29.0356 81.8316 29.1792L78.4092 36.6091C78.3761 36.6753 78.3209 36.7305 78.2215 36.7305H78.1111C78.0118 36.7305 77.9566 36.6753 77.9235 36.6091Z" fill="#750606"/>
<path d="M29.869 11.48H38.8066L25.8412 33.7358C24.6358 35.1764 23.16 36.7228 20.5492 37.0286C16.5744 37.6636 13.8362 35.098 12.964 33.7358C12.964 33.7358 15.6688 35.4116 17.2858 33.0008L29.869 11.48Z" fill="url(#paint0_linear_54264_4516)"/>
<path d="M14.8461 25.2393L8.40747 20.7117L17.1099 6.05217C18.3153 4.61157 19.7912 3.06513 22.4019 2.75937C26.3768 2.12433 29.1149 4.68997 29.9871 6.05217C29.9871 6.05217 27.2823 4.37637 25.6653 6.78717L14.8461 25.2393Z" fill="url(#paint1_linear_54264_4516)"/>
<path d="M34.0441 28.3076H42.9817L30.0163 6.05182C28.8109 4.61122 27.335 3.06478 24.7243 2.75902C20.7494 2.12398 18.0113 4.68962 17.1391 6.05182C17.1391 6.05182 19.8439 4.37602 21.4609 6.78682L34.0441 28.3076Z" fill="url(#paint2_linear_54264_4516)"/>
<path d="M8.93638 11.5679H-0.0012207L12.9642 33.8237C14.1696 35.2643 15.6455 36.8107 18.2562 37.1165C22.2311 37.7515 24.9692 35.1859 25.8414 33.8237C25.8414 33.8237 23.1366 35.4995 21.5196 33.0887L8.93638 11.5679Z" fill="url(#paint3_linear_54264_4516)"/>
<path d="M85.6279 28.2308L89.0393 35.6607C89.1055 35.8042 89.0172 35.9477 88.8516 35.9477L87.7255 35.9477C87.6262 35.9477 87.5599 35.8815 87.5379 35.8263L85.4182 31.0791L85.3409 31.0791L83.2212 35.8263C83.1991 35.8815 83.1329 35.9477 83.0335 35.9477L81.9075 35.9477C81.7419 35.9477 81.6535 35.8042 81.7198 35.6607L85.1422 28.2308C85.1753 28.1645 85.2305 28.1093 85.3299 28.1093L85.4403 28.1093C85.5396 28.1093 85.5948 28.1645 85.6279 28.2308Z" fill="#750606"/>
<defs>
<linearGradient id="paint0_linear_54264_4516" x1="25.8853" y1="11.48" x2="25.8853" y2="37.1279" gradientUnits="userSpaceOnUse">
<stop stop-color="#C85353"/>
<stop offset="1" stop-color="#AC0A0A"/>
</linearGradient>
<linearGradient id="paint1_linear_54264_4516" x1="17.0658" y1="28.308" x2="17.0658" y2="2.66006" gradientUnits="userSpaceOnUse">
<stop stop-color="#C85353"/>
<stop offset="1" stop-color="#AC0A0A"/>
</linearGradient>
<linearGradient id="paint2_linear_54264_4516" x1="30.0604" y1="28.3076" x2="30.0604" y2="2.65971" gradientUnits="userSpaceOnUse">
<stop stop-color="#BB0606"/>
<stop offset="1" stop-color="#680707"/>
</linearGradient>
<linearGradient id="paint3_linear_54264_4516" x1="12.9201" y1="11.5679" x2="12.9201" y2="37.2158" gradientUnits="userSpaceOnUse">
<stop stop-color="#BB0606"/>
<stop offset="1" stop-color="#680707"/>
</linearGradient>
</defs>
</svg>
